<svg xmlns="http://www.w3.org/2000/svg" width="851" height="558.002" viewBox="0 0 851 558.002">
  <path id="Subtraction_13" data-name="Subtraction 13" d="M727,599H687a40,40,0,1,0-80,0H567a40,40,0,1,0-80,0H447a40,40,0,0,0-80,0H327a40,40,0,0,0-80,0H207a40,40,0,0,0-80,0H80v-.522l0-.122a40.194,40.194,0,0,0-1.127-8.852,39.565,39.565,0,0,0-3.024-8.277l-.02-.04-.015-.029A40.168,40.168,0,0,0,57.656,563.1a39.514,39.514,0,0,0-16.617-4.085h-.271l-.1,0H40V543a40,40,0,1,0,0-80V427a40,40,0,1,0,0-80V311a40,40,0,1,0,0-80V195a40,40,0,1,0,0-80V84A40.045,40.045,0,0,0,80,44c0-1-.037-2.009-.111-3h47.222c-.073.987-.111,2-.111,3a40,40,0,0,0,80,0c0-1-.037-2.009-.111-3h40.221c-.073.988-.111,2-.111,3a40,40,0,0,0,80,0c0-1-.037-2.009-.111-3h40.222c-.073.987-.111,2-.111,3a40,40,0,0,0,80,0c0-1-.037-2.007-.111-3h40.221c-.073.987-.111,2-.111,3a40,40,0,0,0,80,0c0-1-.037-2.009-.111-3h40.221c-.073.987-.111,2-.111,3a40,40,0,0,0,80,0c0-1-.037-2.009-.111-3h40.222c-.073.987-.111,2-.111,3a40,40,0,0,0,80,0c0-1-.037-2.009-.111-3H851a40.045,40.045,0,0,0,40,40v34a40,40,0,0,0,0,80v36a40,40,0,0,0,0,80v36a40,40,0,0,0,0,80v36a40,40,0,0,0,0,80v16a40.046,40.046,0,0,0-40,40H807a40,40,0,1,0-80,0Z" transform="translate(-40 -41)" fill="#ff6a59"/>
</svg>
